<?xml version="1.0" standalone="no"?>
<svg version="1.0" xmlns="http://www.w3.org/2000/svg"
 width="512.000000pt" height="512.000000pt" viewBox="0 0 512.000000 512.000000"
 preserveAspectRatio="xMidYMid meet">

<g transform="translate(0.000000,512.000000) scale(0.100000,-0.100000)"
fill="#000000" stroke="none">
<path d="M1264 4260 l-609 -559 -327 -1 -328 0 0 -630 0 -630 144 0 144 0 32
-133 c17 -72 131 -553 253 -1067 l223 -935 1764 0 1764 0 223 935 c122 514
236 995 253 1067 l32 133 144 0 144 0 0 630 0 630 -327 0 -328 1 -609 559
c-335 308 -610 560 -611 560 -2 0 -72 -75 -156 -167 l-153 -166 46 -41 c25
-23 218 -198 428 -391 l381 -350 -615 -3 c-339 -1 -893 -1 -1231 0 l-615 3
425 389 c234 215 425 392 425 394 0 4 -301 332 -304 332 -1 0 -277 -252 -612
-560z m3404 -1192 l-3 -173 -2105 0 -2105 0 -3 173 -2 172 2110 0 2110 0 -2
-172z m-308 -640 c0 -7 -89 -386 -198 -843 l-198 -830 -1404 0 -1404 0 -198
830 c-109 457 -198 836 -198 843 0 9 367 12 1800 12 1433 0 1800 -3 1800 -12z"/>
<path d="M2335 2088 c-3 -7 -4 -233 -3 -503 l3 -490 225 0 225 0 0 500 0 500
-223 3 c-172 2 -224 0 -227 -10z"/>
<path d="M1440 1595 l0 -355 225 0 225 0 0 355 0 355 -225 0 -225 0 0 -355z"/>
<path d="M3230 1595 l0 -355 225 0 225 0 0 355 0 355 -225 0 -225 0 0 -355z"/>
</g>
</svg>
